<?xml version="1.0" standalone="no"?>
<!DOCTYPE svg PUBLIC "-//W3C//DTD SVG 20010904//EN"
 "http://www.w3.org/TR/2001/REC-SVG-20010904/DTD/svg10.dtd">
<svg version="1.0" xmlns="http://www.w3.org/2000/svg"
 width="260.000000pt" height="260.000000pt" viewBox="0 0 260.000000 260.000000"
 preserveAspectRatio="xMidYMid meet">
<metadata>
Created by potrace 1.11, written by Peter Selinger 2001-2013
</metadata>
<g transform="translate(0.000000,260.000000) scale(0.100000,-0.100000)"
fill="#000000" stroke="none">
<path d="M1247 2480 c-26 -16 -50 -30 -53 -30 -3 0 -44 -19 -92 -42 -139 -66
-406 -249 -420 -287 -3 -9 -16 -31 -30 -48 -16 -21 -26 -50 -28 -80 -6 -81
-36 -257 -46 -270 -5 -7 -7 -26 -3 -43 4 -16 2 -30 -3 -30 -5 0 -8 -56 -6
-132 3 -124 35 -312 65 -383 17 -41 39 -208 39 -301 0 -83 21 -248 37 -294 3
-8 7 -32 9 -54 2 -21 7 -43 11 -49 4 -6 7 -34 8 -63 1 -31 11 -69 24 -93 11
-23 21 -48 21 -56 0 -19 73 -65 104 -65 17 0 27 8 36 29 13 33 50 69 101 99
36 22 49 52 49 116 0 16 -2 17 -16 5 -14 -11 -15 -10 -12 11 2 14 9 24 16 22
9 -1 12 24 12 94 0 78 -3 94 -13 86 -10 -8 -16 -6 -26 10 -13 21 -13 21 -33
-10 -33 -53 -70 -38 -42 17 17 34 90 101 111 101 10 0 13 20 12 78 0 63 -2 73
-11 54 -6 -12 -22 -25 -35 -28 -16 -5 -26 -16 -30 -36 -3 -16 -12 -32 -19 -35
-8 -3 -23 -20 -35 -39 -24 -40 -43 -45 -37 -9 3 14 2 25 -1 25 -13 0 -9 39 4
50 8 6 11 18 9 25 -7 17 62 64 98 67 23 2 27 7 30 45 2 24 -2 58 -9 75 -6 18
-12 28 -12 21 -1 -6 -26 -17 -56 -24 -30 -7 -52 -16 -49 -21 7 -11 -17 -31
-63 -54 -18 -9 -33 -20 -33 -25 0 -4 -13 -22 -29 -38 -17 -17 -25 -33 -20 -38
6 -6 1 -17 -11 -28 -21 -19 -21 -20 -23 28 -1 16 63 117 74 117 5 0 9 5 9 12
0 6 -7 4 -18 -5 -20 -19 -38 -22 -46 -8 -7 10 16 61 28 61 5 0 27 16 49 36 29
27 42 33 47 23 7 -10 18 -6 49 15 23 16 41 31 41 35 0 3 -27 14 -59 24 -32 10
-81 29 -110 42 -28 13 -51 21 -51 17 0 -12 -50 -62 -61 -62 -7 0 -10 19 -7 50
1 28 -1 50 -5 50 -4 0 -6 12 -3 28 2 15 5 30 5 35 1 4 10 7 22 7 13 0 20 6 18
18 -1 9 1 34 5 55 10 47 23 47 166 7 58 -17 118 -30 134 -30 33 0 146 -29 159
-40 8 -7 -5 -152 -19 -220 -5 -25 -5 -25 10 -4 8 11 25 50 36 85 28 82 62 149
76 149 18 0 114 82 114 97 0 7 4 13 9 13 4 0 31 18 59 40 56 45 150 90 187 90
14 0 29 -8 35 -20 16 -29 44 -24 78 14 16 18 47 50 69 69 l39 36 -1 -90 0 -90
-39 -22 c-30 -17 -40 -19 -44 -9 -3 10 -9 9 -26 -6 -22 -20 -128 -51 -258 -75
-65 -12 -78 -12 -78 -1 0 24 -16 15 -59 -31 -43 -47 -47 -55 -32 -70 5 -6 11
-28 14 -50 2 -22 9 -54 15 -72 l10 -31 -97 -32 c-53 -17 -104 -28 -113 -25
-10 4 -17 -1 -21 -14 -5 -19 -1 -21 37 -21 23 0 86 14 140 31 l99 31 -7 51
c-3 29 -9 82 -12 118 l-7 65 84 17 c46 9 102 19 125 22 23 4 77 17 120 31 43
13 91 24 105 24 33 0 40 -22 44 -132 3 -75 3 -76 -23 -86 -15 -6 -63 -24 -107
-40 -68 -25 -80 -33 -78 -51 2 -12 -3 -21 -11 -21 -7 0 -36 -23 -64 -51 -51
-51 -58 -51 -71 -3 -3 13 -4 -112 -3 -279 4 -286 5 -306 27 -372 13 -38 28
-95 34 -125 6 -30 19 -86 31 -125 11 -38 22 -75 23 -82 10 -42 57 -17 91 48
15 30 43 81 62 114 69 123 184 355 184 371 0 20 -41 137 -51 144 -7 6 5 189
20 275 5 33 19 98 31 145 43 173 61 319 66 523 4 178 3 201 -15 240 -10 23
-22 52 -25 64 -4 11 -17 28 -30 37 -25 16 -56 68 -56 95 -1 16 -33 61 -45 61
-3 0 -21 11 -38 24 -18 13 -52 34 -76 46 -24 12 -53 30 -64 41 -12 10 -24 19
-29 19 -4 0 -8 6 -8 14 0 18 -85 96 -105 96 -8 0 -60 23 -115 50 -55 28 -110
50 -123 50 -13 0 -44 -13 -70 -30z m10 -162 c-2 -62 -2 -96 0 -75 3 31 8 37
28 37 13 0 27 5 30 10 3 6 21 10 38 11 20 0 26 3 17 7 -20 9 -22 52 -3 52 10
0 13 -6 9 -16 -4 -12 -1 -14 13 -9 12 3 28 -1 41 -12 20 -18 24 -19 57 -22 12
-1 6 -11 -23 -37 -48 -44 -88 -66 -100 -55 -17 15 -86 0 -91 -20 -5 -19 -23
-27 -23 -10 0 6 -12 6 -30 1 -22 -6 -34 -5 -45 6 -13 14 -15 13 -15 -4 0 -24
-27 -37 -45 -22 -9 8 -15 8 -20 0 -4 -6 -24 -22 -46 -36 -21 -13 -39 -31 -39
-39 0 -8 -8 -15 -17 -15 -23 0 -113 -89 -113 -112 0 -10 5 -18 11 -18 14 0 90
54 111 79 27 31 42 27 34 -11 -9 -43 -54 -101 -73 -94 -17 7 -43 -10 -43 -26
0 -6 8 -4 18 3 12 10 12 8 -3 -10 -11 -13 -19 -26 -17 -30 2 -3 -4 -7 -12 -9
-9 -2 -16 3 -16 12 0 15 -3 15 -27 -1 -42 -26 -113 -96 -113 -112 0 -8 -12
-32 -26 -53 -15 -22 -24 -44 -20 -54 5 -13 13 -11 54 18 61 44 82 56 65 37
-17 -17 -17 -37 -1 -21 24 24 27 11 6 -24 -11 -19 -31 -39 -42 -44 -21 -8 -55
-40 -42 -40 18 0 22 -3 28 -21 4 -10 14 -19 23 -19 9 0 15 -9 15 -24 0 -23 2
-24 30 -15 17 6 30 17 30 25 0 8 8 14 17 14 9 0 27 9 39 21 20 19 51 19 40 1
-2 -4 13 -7 34 -7 26 0 55 -11 96 -38 33 -21 71 -43 87 -50 34 -14 34 -26 -1
-60 -32 -31 -40 -32 -78 -12 -16 8 -45 15 -64 15 -39 1 -193 43 -185 51 3 3
-3 6 -13 6 -72 -1 -79 2 -74 32 5 39 -24 51 -40 16 -10 -22 -18 -25 -60 -25
-31 0 -48 4 -49 13 -4 49 5 173 17 227 7 36 18 118 23 182 9 121 22 159 71
203 11 10 20 24 20 31 0 23 205 163 218 149 4 -4 1 -10 -5 -12 -7 -3 -13 -9
-13 -14 0 -5 30 11 66 36 63 43 84 53 84 39 0 -3 -10 -14 -22 -24 -32 -26 -17
-34 23 -13 19 10 35 19 37 20 2 1 -2 11 -8 23 -10 18 -8 24 16 43 36 29 85 57
102 57 11 0 13 -22 9 -112z m-197 17 c0 -8 -7 -15 -15 -15 -8 0 -15 -4 -15 -9
0 -5 -9 -11 -20 -14 -29 -8 -24 5 13 30 39 27 37 26 37 8z m513 -67 c28 5 23
-46 -7 -58 -13 -5 -27 -14 -31 -19 -13 -22 -20 -10 -17 29 2 22 8 40 14 40 5
0 6 5 2 12 -5 7 -3 8 7 2 8 -5 22 -7 32 -6z m74 -88 c-3 -11 -1 -20 4 -20 5 0
9 5 9 10 0 6 8 10 18 9 10 0 12 -3 4 -6 -6 -2 -9 -10 -5 -16 4 -7 8 -18 8 -26
0 -8 8 -15 19 -17 36 -5 41 -22 18 -54 -23 -31 -30 -90 -10 -90 6 0 22 10 35
22 13 12 23 16 23 10 0 -7 -4 -12 -10 -12 -18 0 -10 -21 16 -43 l26 -22 -23
-20 c-16 -14 -23 -16 -26 -7 -3 6 -9 12 -15 12 -6 0 -7 -7 -4 -16 11 -29 -5
-35 -35 -14 -16 12 -29 31 -29 43 0 20 -1 20 -13 3 -10 -13 -20 -16 -35 -12
-27 9 -29 42 -5 68 32 35 55 128 32 128 -6 0 -8 9 -4 20 3 11 2 20 -3 20 -6 0
-9 11 -8 25 0 14 5 25 10 25 4 0 6 -9 3 -20z m153 -18 c3 -3 -3 -2 -12 1 -10
3 -20 2 -23 -3 -4 -6 -13 -10 -21 -10 -11 0 -12 4 -2 19 10 16 16 18 32 9 12
-6 23 -13 26 -16z m50 -372 c0 -11 6 -30 13 -41 11 -19 7 -25 -33 -60 l-45
-39 -5 37 c-3 21 -10 37 -17 36 -22 -4 -3 80 24 105 l25 23 19 -20 c11 -11 19
-29 19 -41z m-998 -92 c-7 -7 -12 -8 -12 -2 0 14 12 26 19 19 2 -3 -1 -11 -7
-17z m-116 -283 c-6 -19 -15 -35 -20 -35 -4 0 -5 8 -1 18 4 9 7 25 7 35 0 9 5
17 12 17 10 0 11 -7 2 -35z m1184 -125 c0 -16 -4 -30 -10 -30 -5 0 -10 14 -10
30 0 17 5 30 10 30 6 0 10 -13 10 -30z m-1120 -148 c0 -11 -57 -97 -73 -110
-9 -8 -13 -1 -14 26 -2 31 3 42 30 64 32 27 57 36 57 20z m946 -54 c4 -7 4
-10 -1 -6 -4 4 -17 2 -29 -4 -33 -18 -50 -19 -35 -2 6 7 15 11 20 8 5 -3 9 0
9 5 0 15 27 14 36 -1z m-1016 -108 c0 -5 -4 -10 -10 -10 -5 0 -10 5 -10 10 0
6 5 10 10 10 6 0 10 -4 10 -10z m842 -91 c0 -19 5 -40 11 -47 9 -11 6 -13 -13
-10 -30 4 -36 28 -20 69 15 36 21 32 22 -12z m42 -105 c6 -17 0 -34 -12 -34
-4 0 -9 11 -10 25 -2 28 12 34 22 9z m-598 -421 c-11 -11 -17 4 -9 23 7 18 8
18 11 1 2 -10 1 -21 -2 -24z m-199 12 c0 -8 -4 -12 -9 -9 -5 3 -6 10 -3 15 9
13 12 11 12 -6z"/>
<path d="M946 2205 c-25 -25 -51 -58 -59 -73 -7 -15 -19 -26 -25 -25 -6 2 -22
-8 -35 -21 -13 -13 -30 -25 -38 -28 -11 -4 -11 -9 5 -27 11 -11 25 -21 31 -21
13 0 105 102 105 116 0 4 21 26 46 48 33 30 44 46 39 59 -10 25 -19 22 -69
-28z"/>
<path d="M840 2180 c-9 -6 -10 -10 -3 -10 6 0 15 5 18 10 8 12 4 12 -15 0z"/>
<path d="M708 1546 c-18 -13 -25 -36 -10 -36 17 1 34 18 30 33 -2 13 -6 14
-20 3z"/>
<path d="M1766 1531 c-13 -14 -15 -24 -8 -37 7 -12 11 -13 17 -5 4 7 4 15 1
18 -3 3 -1 12 6 20 18 22 3 25 -16 4z"/>
<path d="M1831 1494 c0 -11 3 -14 6 -6 3 7 2 16 -1 19 -3 4 -6 -2 -5 -13z"/>
<path d="M1068 988 c-2 -13 -1 -34 3 -48 5 -19 7 -14 8 23 1 50 -4 62 -11 25z"/>
<path d="M1060 678 c0 -7 5 -20 10 -28 8 -12 10 -9 10 13 0 15 -4 27 -10 27
-5 0 -10 -6 -10 -12z"/>
</g>
</svg>
