<svg width="260" height="260" viewBox="0 0 260 260" preserveAspectRatio="xMidYMid meet">
<g transform="translate(0.000000,260.000000) scale(0.100000,-0.100000)" fill="none"
 fill-rule="evenodd" stroke-width="20pt" stroke="currentColor" class="ares-logo">
<path d="M1249 2487 c-19 -13 -81 -45 -139 -72 -155 -72 -430 -262 -430 -297
0 -5 -13 -22 -29 -38 -21 -22 -30 -44 -35 -83 -18 -144 -41 -277 -49 -277 -5
0 -6 -13 -2 -30 4 -16 3 -35 -1 -42 -11 -17 -12 -122 -3 -224 7 -78 43 -253
59 -284 4 -9 11 -36 15 -60 4 -25 9 -54 12 -65 4 -21 25 -297 24 -330 0 -10 4
-24 8 -30 10 -12 45 -210 43 -244 -1 -12 1 -28 5 -34 4 -7 8 -29 8 -49 1 -20
9 -46 18 -56 9 -10 17 -28 17 -40 0 -29 68 -72 114 -72 28 0 36 5 46 29 13 33
50 69 101 99 47 28 46 25 55 397 6 272 5 304 -10 333 -29 57 -50 72 -92 65
-27 -4 -35 -3 -30 5 4 7 13 12 21 12 8 0 16 4 19 8 3 5 -32 21 -77 37 -45 15
-99 36 -119 46 -21 11 -38 15 -38 10 0 -5 -6 -11 -14 -14 -11 -4 -14 11 -15
74 -2 99 13 159 38 159 10 0 65 -13 122 -30 57 -16 117 -30 132 -30 44 0 158
-32 163 -45 5 -12 -19 -201 -32 -257 -10 -45 27 -46 167 -2 l121 38 -6 50 c-3
28 -9 81 -12 117 l-7 65 77 17 c42 9 87 17 100 17 13 0 70 13 127 30 114 33
145 36 147 18 23 -177 23 -170 0 -195 -12 -13 -31 -23 -43 -23 -11 0 -25 -4
-31 -9 -5 -5 -32 -16 -61 -25 -28 -10 -57 -24 -63 -32 -7 -7 -26 -14 -42 -14
-32 0 -94 -26 -105 -44 -4 -6 -6 -145 -4 -309 3 -282 4 -302 26 -365 13 -37
26 -89 30 -117 4 -27 12 -56 17 -63 6 -6 7 -12 3 -12 -4 0 -2 -7 5 -15 6 -8 9
-19 6 -24 -4 -5 -1 -13 5 -16 5 -4 8 -13 5 -21 -3 -7 -1 -16 5 -19 5 -4 7 -10
4 -15 -3 -5 -1 -11 5 -15 5 -3 10 -15 10 -26 0 -14 7 -19 30 -19 24 0 35 8 53
38 13 20 28 48 32 62 4 14 11 27 14 30 4 3 28 43 53 90 127 238 168 319 168
337 0 11 -6 36 -14 54 -15 38 -27 72 -28 79 -1 3 -8 10 -17 16 -12 10 -13 15
-3 27 9 10 12 43 11 94 -1 44 3 89 10 100 6 12 11 33 11 46 0 13 11 69 25 124
45 182 66 346 71 550 l5 192 -30 63 c-16 35 -39 72 -51 83 -24 22 -55 73 -55
92 0 22 -64 81 -123 114 -85 47 -132 80 -132 93 0 13 -94 96 -110 96 -5 0 -55
23 -110 50 -112 56 -150 61 -201 27z m5 -174 c-3 -60 -9 -112 -11 -116 -9 -16
-48 -25 -65 -15 -13 6 -18 5 -18 -4 0 -7 -34 -26 -75 -41 -57 -21 -75 -33 -75
-47 0 -21 22 -39 27 -23 5 15 43 4 43 -12 0 -7 -7 -18 -15 -25 -8 -7 -15 -24
-15 -39 0 -17 -12 -36 -36 -56 -20 -16 -53 -47 -74 -68 -34 -35 -39 -37 -48
-21 -9 16 -13 15 -51 -15 -24 -19 -40 -40 -39 -50 2 -10 -3 -15 -14 -13 -14 2
-30 -11 -34 -28 -7 -36 -20 -62 -35 -71 -22 -11 -25 -39 -5 -39 8 0 39 20 69
45 31 25 60 45 66 45 14 0 14 -37 0 -46 -6 -3 -20 -26 -31 -50 -10 -24 -25
-44 -33 -44 -8 0 -17 -5 -21 -12 -5 -7 -3 -8 6 -3 9 5 10 2 5 -14 -5 -18 -2
-24 14 -28 12 -3 21 -13 21 -24 0 -11 6 -19 14 -19 25 0 46 12 46 26 0 8 7 14
15 14 9 0 25 9 36 19 12 11 28 21 38 24 13 3 17 -2 15 -24 -1 -19 3 -29 12
-29 8 0 14 -5 14 -11 0 -5 5 -7 11 -3 8 5 8 9 -1 14 -19 12 6 23 33 14 29 -8
58 -34 51 -45 -3 -5 4 -9 16 -9 11 0 23 -7 27 -15 3 -9 13 -15 22 -14 29 3 51
-1 51 -8 0 -5 -12 -20 -25 -36 -21 -24 -29 -27 -65 -21 -35 6 -40 10 -40 33 0
40 -18 51 -82 51 -44 0 -59 -4 -67 -17 -10 -17 -10 -17 -11 2 0 15 -3 16 -12
7 -15 -15 -32 -16 -23 -2 9 14 -28 12 -44 -2 -11 -11 -12 -10 -6 1 6 10 2 12
-14 6 -12 -3 -35 -3 -52 0 -27 6 -29 8 -13 19 19 14 12 36 -12 36 -8 0 -14 -9
-14 -20 0 -17 -7 -20 -42 -20 -72 0 -73 2 -60 132 7 62 16 140 22 173 6 33 14
103 18 155 5 67 13 103 26 122 10 16 107 86 215 157 108 71 221 148 251 170
30 22 65 40 78 41 l23 0 -7 -107z m66 -83 c0 -5 -7 -7 -15 -4 -8 4 -12 10 -9
15 6 11 24 2 24 -11z m320 -304 c0 -10 -28 -7 -35 4 -11 18 5 31 21 16 8 -8
14 -17 14 -20z m78 -36 c7 -11 9 -20 4 -20 -10 0 -32 22 -32 32 0 15 15 8 28
-12z m97 -210 c-3 -5 -12 -10 -18 -10 -7 0 -6 4 3 10 19 12 23 12 15 0z m29
-87 c-4 -16 -15 -44 -25 -63 -15 -28 -18 -31 -19 -13 0 12 -3 28 -6 37 -3 9 5
26 20 41 32 32 38 32 30 -2z m-160 -54 c9 -8 -86 -59 -111 -59 -17 0 -55 -52
-48 -67 2 -8 0 -11 -5 -8 -6 3 -10 -1 -10 -9 0 -19 -52 -35 -58 -18 -7 21 -49
13 -82 -14 -17 -15 -33 -24 -37 -21 -3 3 16 21 41 39 27 18 44 38 42 45 -3 7
0 13 6 13 6 0 34 17 62 39 62 47 88 61 115 61 12 0 21 5 21 10 0 11 49 3 64
-11z m21 -29 c3 -5 1 -10 -4 -10 -6 0 -11 5 -11 10 0 6 2 10 4 10 3 0 8 -4 11
-10z m-648 -112 c-3 -8 -6 -5 -6 6 -1 11 2 17 5 13 3 -3 4 -12 1 -19z m252
-79 c11 18 30 6 26 -17 -1 -9 4 -29 11 -44 12 -22 11 -27 -1 -32 -8 -3 -15
-15 -15 -26 0 -11 -5 -20 -11 -20 -8 0 -7 -5 1 -15 10 -13 15 -13 21 -3 4 7
11 9 15 6 3 -4 -1 -14 -9 -23 -10 -9 -18 -11 -22 -5 -10 16 -25 12 -26 -7 0
-14 -3 -12 -9 5 -9 22 -11 22 -41 7 -39 -21 -45 -14 -25 26 9 18 16 39 16 48
0 27 44 109 53 97 5 -8 10 -7 16 3z m-519 -179 c0 -5 -2 -10 -4 -10 -3 0 -8 5
-11 10 -3 6 -1 10 4 10 6 0 11 -4 11 -10z m104 -85 c7 -20 -21 -32 -37 -16 -9
9 -8 14 3 21 21 13 27 12 34 -5z m96 -245 c-6 -11 -13 -20 -16 -20 -2 0 0 9 6
20 6 11 13 20 16 20 2 0 0 -9 -6 -20z m80 -100 c0 -11 -7 -20 -15 -20 -8 0
-15 -7 -15 -15 0 -10 -10 -15 -30 -15 -30 0 -30 0 -14 24 8 14 21 23 28 20 8
-3 16 2 19 10 9 23 27 20 27 -4z"/>
<path d="M900 2130 c-18 -22 -40 -40 -48 -40 -8 0 -12 -6 -9 -14 3 -8 -2 -16
-14 -19 -20 -5 -26 -32 -9 -42 5 -3 16 2 25 12 32 37 86 107 96 124 17 33 -6
21 -41 -21z"/>
<path d="M947 2033 c-14 -16 -33 -34 -41 -41 -22 -18 -20 -32 4 -32 25 0 104
75 95 90 -11 17 -31 11 -58 -17z"/>
<path d="M705 1530 c-3 -6 1 -7 9 -4 18 7 21 14 7 14 -6 0 -13 -4 -16 -10z"/>
</g>
</svg>
