<?xml version="1.0" encoding="UTF-8"?>
<svg xmlns="http://www.w3.org/2000/svg" xmlns:xlink="http://www.w3.org/1999/xlink" viewBox="0 0 26 26" version="1.1">
<g id="surface1">
<path style=" " d="M 17.78125 0.1875 L 16.28125 0.8125 L 16.6875 2.6875 C 16.3125 2.960938 16.003906 3.304688 15.71875 3.6875 L 13.8125 3.25 L 13.1875 4.75 L 14.8125 5.78125 C 14.738281 6.25 14.746094 6.722656 14.8125 7.1875 L 13.1875 8.21875 L 13.78125 9.71875 L 15.6875 9.3125 C 15.960938 9.683594 16.304688 9.996094 16.6875 10.28125 L 16.21875 12.1875 L 17.71875 12.8125 L 18.78125 11.15625 C 19.25 11.226563 19.730469 11.226563 20.1875 11.15625 L 21.21875 12.8125 L 22.71875 12.21875 L 22.28125 10.3125 C 22.652344 10.039063 22.96875 9.691406 23.25 9.3125 L 25.1875 9.75 L 25.8125 8.25 L 24.15625 7.21875 C 24.226563 6.75 24.222656 6.300781 24.15625 5.84375 L 25.8125 4.78125 L 25.1875 3.28125 L 23.28125 3.71875 C 23.011719 3.34375 22.691406 3.003906 22.3125 2.71875 L 22.75 0.84375 L 21.25 0.21875 L 20.21875 1.84375 C 19.75 1.769531 19.273438 1.777344 18.8125 1.84375 Z M 19.5 4.25 C 19.792969 4.25 20.085938 4.316406 20.375 4.4375 C 21.527344 4.921875 22.074219 6.222656 21.59375 7.375 C 21.113281 8.527344 19.777344 9.074219 18.625 8.59375 C 17.472656 8.113281 16.925781 6.78125 17.40625 5.625 C 17.769531 4.761719 18.617188 4.253906 19.5 4.25 Z M 7.375 9.0625 L 6.96875 11.5625 C 6.363281 11.710938 5.800781 11.941406 5.28125 12.25 L 3.21875 10.78125 L 1.71875 12.28125 L 3.15625 14.34375 C 2.84375 14.863281 2.621094 15.457031 2.46875 16.0625 L -0.03125 16.46875 L -0.03125 18.59375 L 2.46875 19.03125 C 2.617188 19.636719 2.839844 20.199219 3.15625 20.71875 L 1.6875 22.78125 L 3.1875 24.28125 L 5.28125 22.84375 C 5.800781 23.15625 6.367188 23.382813 6.96875 23.53125 L 7.375 26.03125 L 9.5 26.03125 L 9.9375 23.53125 C 10.539063 23.378906 11.109375 23.125 11.625 22.8125 L 13.71875 24.28125 L 15.21875 22.78125 L 13.71875 20.71875 C 14.027344 20.203125 14.257813 19.632813 14.40625 19.03125 L 16.9375 18.59375 L 16.9375 16.46875 L 14.40625 16.0625 C 14.257813 15.464844 14.027344 14.890625 13.71875 14.375 L 15.1875 12.28125 L 13.6875 10.78125 L 11.625 12.28125 C 11.105469 11.96875 10.539063 11.710938 9.9375 11.5625 L 9.5 9.0625 Z M 8.46875 14.59375 C 10.105469 14.59375 11.40625 15.894531 11.40625 17.53125 C 11.40625 19.167969 10.105469 20.5 8.46875 20.5 C 6.832031 20.5 5.5 19.167969 5.5 17.53125 C 5.5 15.894531 6.832031 14.59375 8.46875 14.59375 Z "/>
</g>
</svg>
